<?xml version="1.0" encoding="UTF-8" standalone="no"?><!DOCTYPE svg PUBLIC "-//W3C//DTD SVG 1.1//EN" "http://www.w3.org/Graphics/SVG/1.1/DTD/svg11.dtd"><svg width="100%" height="100%" viewBox="0 0 180 51" version="1.1" xmlns="http://www.w3.org/2000/svg" xmlns:xlink="http://www.w3.org/1999/xlink" xml:space="preserve" style="fill-rule:evenodd;clip-rule:evenodd;stroke-linejoin:round;stroke-miterlimit:1.41421;"><g clip-path="url(#_clip1)"><path d="M0,2c0,-0.826 0.501,-1.535 1.215,-1.839l0.007,-0.004c0,0 0.074,-0.027 0.074,-0.027c0.217,-0.084 0.452,-0.129 0.704,-0.13l46.234,0c0.117,0 0.232,0.01 0.344,0.032l0.059,0.009c0,0 0.037,0.009 0.037,0.009c0.89,0.198 1.557,0.994 1.56,1.945l0,32.932c0,1.101 -0.893,1.996 -2,2l-2.72,0c-1.104,0 -2,-0.896 -2,-2l0,-28.243l-36.798,0l0,36.917l41.504,0c1.108,0.004 2,0.899 2,2l0,2.619c0,1.104 -0.896,2 -2,2l-46.22,0c-0.397,0 -0.767,-0.115 -1.078,-0.317l-0.04,-0.024c0,0 -0.027,-0.021 -0.027,-0.021c-0.517,-0.361 -0.855,-0.96 -0.855,-1.638l0,-46.22Z" style="fill:#595959;"/><path d="M69.245,2c0,-1.104 -0.896,-2 -2,-2l-2.716,0c-1.104,0 -2,0.896 -2,2l0,46.22c0,1.104 0.896,2 2,2l2.716,0c1.104,0 2,-0.896 2,-2l0,-46.22Z" style="fill:#8c8c8c;"/><path d="M89.652,0c0.41,0.001 0.792,0.125 1.109,0.336c0.433,0.119 0.83,0.384 1.108,0.781l25.397,36.271l0,-35.388c0,-1.102 0.893,-1.997 2,-2l2.716,0c1.105,0.003 1.997,0.895 2,1.995l0,46.225c0,1.104 -0.896,2 -2,2l-2.716,0c-0.431,0 -0.831,-0.136 -1.157,-0.371c-0.301,-0.142 -0.571,-0.363 -0.776,-0.656l-25.681,-36.677l0,35.704c0,1.102 -0.893,1.997 -2,2l-2.716,0c-1.104,0 -2,-0.896 -2,-2l0,-46.22c0,-1.102 0.892,-1.997 2,-2l2.716,0Z" style="fill:#8c8c8c;"/><path d="M158.54,19.566l15.669,-18.673c0.71,-0.846 1.972,-0.956 2.818,-0.247l2.08,1.746c0.846,0.71 0.956,1.972 0.247,2.818l-16.43,19.58l16.43,19.581c0.709,0.846 0.599,2.108 -0.247,2.818l-2.08,1.746c-0.846,0.709 -2.108,0.599 -2.818,-0.247l-15.669,-18.673l-15.669,18.673c-0.71,0.846 -1.972,0.956 -2.818,0.247l-2.08,-1.746c-0.846,-0.71 -0.956,-1.972 -0.247,-2.818l16.43,-19.581l-16.43,-19.58c-0.709,-0.846 -0.599,-2.108 0.247,-2.818l2.08,-1.746c0.846,-0.709 2.108,-0.599 2.818,0.247l15.669,18.673Z" style="fill:#8c8c8c;"/></g></svg>