<?xml version="1.0" encoding="UTF-8" standalone="no"?><!DOCTYPE svg PUBLIC "-//W3C//DTD SVG 1.1//EN"
	"http://www.w3.org/Graphics/SVG/1.1/DTD/svg11.dtd">
<svg width="100%" height="100%" viewBox="0 0 200 208" version="1.1" xmlns="http://www.w3.org/2000/svg" xmlns:xlink="http://www.w3.org/1999/xlink" xml:space="preserve" style="fill-rule:evenodd;clip-rule:evenodd;stroke-linejoin:round;stroke-miterlimit:1.41421;">
	<g clip-path="url(#_clip1)"><path d="M138.915,134.563c13.178,-14.267 21.399,-33.369 21.399,-54.406c0,-44.129 -35.907,-80.157 -80.157,-80.157c-44.249,0 -80.157,36.028 -80.157,80.157c0,44.129 35.908,80.157 80.157,80.157c18.015,0 34.578,-5.924 47.998,-15.958l59.604,59.604c1.45,1.45 3.264,2.176 5.078,2.176c1.813,0 3.747,-0.726 5.077,-2.176c2.781,-2.781 2.781,-7.375 0,-10.277l-58.999,-59.12ZM14.508,80.157c0,-36.149 29.379,-65.649 65.649,-65.649c36.15,0 65.649,29.379 65.649,65.649c0,36.27 -29.379,65.649 -65.649,65.649c-36.27,0 -65.649,-29.499 -65.649,-65.649Z" style="fill-rule:nonzero;"/></g>
</svg>