<svg viewBox="0 0 200 208" xmlns="http://www.w3.org/2000/svg" fill-rule="evenodd" clip-rule="evenodd" stroke-linejoin="round" stroke-miterlimit="1.414">
    <g clip-path="url(#_clip1)">
        <path d="M138.915 134.563c13.178-14.267 21.399-33.369 21.399-54.406C160.314 36.028 124.407 0 80.157 0 35.908 0 0 36.028 0 80.157s35.908 80.157 80.157 80.157c18.015 0 34.578-5.924 47.998-15.958l59.604 59.604c1.45 1.45 3.264 2.176 5.078 2.176 1.813 0 3.747-.726 5.077-2.176 2.781-2.781 2.781-7.375 0-10.277l-58.999-59.12zM14.508 80.157c0-36.149 29.379-65.649 65.649-65.649 36.15 0 65.649 29.379 65.649 65.649 0 36.27-29.379 65.649-65.649 65.649-36.27 0-65.649-29.499-65.649-65.649z" fill-rule="nonzero"/>
    </g>
</svg>
