<?xml version="1.0" encoding="utf-8"?><svg xmlns="http://www.w3.org/2000/svg" xmlns:xlink="http://www.w3.org/1999/xlink"><symbol viewBox="0 0 180 51" fill-rule="evenodd" clip-rule="evenodd" stroke-linejoin="round" stroke-miterlimit="1.414" id="logo"><g clip-path="url(#_clip1)"><path d="M0 2C0 1.174.501.465 1.215.161l.007-.004.074-.027C1.513.046 1.748.001 2 0h46.234c.117 0 .232.01.344.032l.059.009.037.009a2 2 0 0 1 1.56 1.945v32.932a2.003 2.003 0 0 1-2 2h-2.72a2 2 0 0 1-2-2V6.684H6.716v36.917H48.22c1.108.004 2 .899 2 2v2.619a2 2 0 0 1-2 2H2a1.97 1.97 0 0 1-1.078-.317l-.04-.024-.027-.021A1.994 1.994 0 0 1 0 48.22V2z" fill="#595959"/><path d="M69.245 2a2 2 0 0 0-2-2h-2.716a2 2 0 0 0-2 2v46.22a2 2 0 0 0 2 2h2.716a2 2 0 0 0 2-2V2zm20.407-2c.41.001.792.125 1.109.336.433.119.83.384 1.108.781l25.397 36.271V2c0-1.102.893-1.997 2-2h2.716a2.002 2.002 0 0 1 2 1.995V48.22a2 2 0 0 1-2 2h-2.716a1.97 1.97 0 0 1-1.157-.371 1.974 1.974 0 0 1-.776-.656L91.652 12.516V48.22a2.002 2.002 0 0 1-2 2h-2.716a2 2 0 0 1-2-2V2c0-1.102.892-1.997 2-2h2.716zm68.888 19.566L174.209.893a2.002 2.002 0 0 1 2.818-.247l2.08 1.746c.846.71.956 1.972.247 2.818l-16.43 19.58 16.43 19.581a2.002 2.002 0 0 1-.247 2.818l-2.08 1.746a2.002 2.002 0 0 1-2.818-.247L158.54 30.015l-15.669 18.673a2.002 2.002 0 0 1-2.818.247l-2.08-1.746a2.002 2.002 0 0 1-.247-2.818l16.43-19.581-16.43-19.58a2.002 2.002 0 0 1 .247-2.818l2.08-1.746a2.002 2.002 0 0 1 2.818.247l15.669 18.673z" fill="#8c8c8c"/></g></symbol><symbol viewBox="0 0 200 208" fill-rule="evenodd" clip-rule="evenodd" stroke-linejoin="round" stroke-miterlimit="1.414" id="magnifier"><g clip-path="url(#_clip1)"><path d="M138.915 134.563c13.178-14.267 21.399-33.369 21.399-54.406C160.314 36.028 124.407 0 80.157 0 35.908 0 0 36.028 0 80.157s35.908 80.157 80.157 80.157c18.015 0 34.578-5.924 47.998-15.958l59.604 59.604c1.45 1.45 3.264 2.176 5.078 2.176 1.813 0 3.747-.726 5.077-2.176 2.781-2.781 2.781-7.375 0-10.277l-58.999-59.12zM14.508 80.157c0-36.149 29.379-65.649 65.649-65.649 36.15 0 65.649 29.379 65.649 65.649 0 36.27-29.379 65.649-65.649 65.649-36.27 0-65.649-29.499-65.649-65.649z" fill-rule="nonzero"/></g></symbol><symbol viewBox="0 0 306 306" id="star"><path d="M153 230.775l94.35 68.85-35.7-112.2 94.35-66.3H191.25L153 6.375l-38.25 114.75H0l94.35 66.3-35.7 112.2z"/></symbol><symbol viewBox="0 0 100 100" id="uEA01-magnifier"><path d="M332.74 315.35c30.883-33.433 50.15-78.2 50.15-127.5C382.89 84.433 298.74 0 195.04 0S7.19 84.433 7.19 187.85 91.34 375.7 195.04 375.7c42.217 0 81.033-13.883 112.483-37.4l139.683 139.683c3.4 3.4 7.65 5.1 11.9 5.1s8.783-1.7 11.9-5.1c6.517-6.517 6.517-17.283 0-24.083L332.74 315.35zM41.19 187.85C41.19 103.133 110.04 34 195.04 34c84.717 0 153.85 68.85 153.85 153.85S280.04 341.7 195.04 341.7 41.19 272.567 41.19 187.85z"/></symbol></svg>