<?xml version="1.0" encoding="utf-8"?><svg xmlns="http://www.w3.org/2000/svg" xmlns:xlink="http://www.w3.org/1999/xlink"><symbol viewBox="0 0 32.526 32.526" id="uEA01-close"><path d="M32.526 2.828L29.698 0 16.263 13.435 2.828 0 0 2.828l13.435 13.435L0 29.698l2.828 2.828 13.435-13.435 13.435 13.435 2.828-2.828-13.435-13.435z"/></symbol><symbol viewBox="0 0 604.35 604.35" id="uEA02-google"><path d="M516.375 255v-76.5h-51V255h-76.5v51h76.5v76.5h51V306h76.5v-51h-76.5zm-196.35 86.7l-28.051-20.4c-10.2-7.649-20.399-17.85-20.399-35.7s12.75-33.15 25.5-40.8c33.15-25.5 66.3-53.55 66.3-109.65 0-53.55-33.15-84.15-51-99.45h43.35l30.6-35.7h-158.1c-112.2 0-168.3 71.4-168.3 147.9 0 58.65 45.9 122.4 127.5 122.4h20.4c-2.55 7.65-10.2 20.4-10.2 33.15 0 25.5 10.2 35.7 22.95 51-35.7 2.55-102 10.2-150.45 40.8-45.9 28.05-58.65 66.3-58.65 94.35 0 58.65 53.55 114.75 168.3 114.75 137.7 0 204.001-76.5 204.001-150.449-.001-53.551-28.051-81.601-63.751-112.201zm-193.8-232.05c0-56.1 33.15-81.6 68.85-81.6 66.3 0 102 89.25 102 140.25 0 66.3-53.55 79.05-73.95 79.05-63.75 0-96.9-79.05-96.9-137.7zm91.799 459c-84.15 0-137.7-38.25-137.7-94.351 0-56.1 51-73.95 66.3-81.6 33.15-10.2 76.5-12.75 84.15-12.75h17.85c61.2 43.35 86.7 61.2 86.7 102 0 48.451-48.449 86.701-117.3 86.701z"/></symbol><symbol viewBox="0 0 202.52 202.52" id="uEA03-idea"><path d="M101.255 0C63.576 0 32.916 30.248 32.916 67.422c0 18.764 7.816 39.239 20.972 54.875.175.24.311.426.44.583 4.66 5.74 14.272 20.446 14.272 29.218 0 1.793.462 3.557 1.381 5.232l.122.458v27.6c0 5.723 4.663 10.386 10.393 10.386h5.647l2.727 3.149a10.37 10.37 0 0 0 7.866 3.597h9.058c3.01 0 5.866-1.296 7.831-3.575l2.752-3.171h5.662c5.723 0 10.368-4.667 10.368-10.386v-27.403c1.138-1.854 1.721-3.829 1.721-5.887 0-7.981 8.342-21.888 14.265-29.228.379-.458.734-.981.959-1.421 12.676-15.6 20.249-35.799 20.249-54.023C169.604 30.248 138.944 0 101.255 0zm20.782 189.744h-8.421l-4.552 5.254a4.325 4.325 0 0 1-3.271 1.492h-9.058a4.346 4.346 0 0 1-3.3-1.51l-4.538-5.236H80.49a4.367 4.367 0 0 1-4.363-4.355v-22.865l.598.168c1.113.301 2.033.437 2.906.437h43.465c.827 0 1.696-.115 2.698-.372l.583-.154v22.783a4.35 4.35 0 0 1-4.34 4.358zM83.167 78.516c-.458-6.428 3.21-11.545 7.108-16.971 3.089-4.313 6.27-8.747 7.448-14.029 16.262 14.992 31.544 29.186 18.009 50.77-2.341-13.363-6.539-21.702-16.033-33.079l-.594-.727-4.309 3.59.598.716c10.504 12.605 13.915 20.754 15.883 37.929.043.351 0 .741.032 1.102l-.44-.215c-6.211-2.978-26.571-13.861-27.702-29.086zm41.876 78.18a4.812 4.812 0 0 1-1.947.397h-21.287c.197-2.766 3.611-10.926 5.54-15.525 4.746-11.323 10.644-25.396 9.491-35.491a154.922 154.922 0 0 0-.723-5.418l3.361 2.194.519-.769c16.974-26.015-1.9-43.411-18.563-58.768a582.856 582.856 0 0 1-4.23-3.926l-5.544-5.211.837 7.566c.68 6.145-2.945 11.187-6.785 16.545-4.298 5.995-8.74 12.175-8.135 20.625 1.321 17.751 22.035 29.515 30.871 33.745l.845.397 2.026-4.23c.021 8.596-4.996 20.7-9.158 30.621-3.493 8.342-5.726 13.907-5.884 17.651H79.628a5.002 5.002 0 0 1-5.003-4.996c0-12.73-14.011-30.971-15.607-33.011l-.512-.68c-12.25-14.541-19.562-33.602-19.562-50.984 0-33.849 27.951-61.384 62.308-61.384 34.368 0 62.315 27.536 62.315 61.384 0 17.021-7.093 35.799-19.032 50.351l-.408.655c-.05.125-.215.387-.429.662-4.334 5.372-15.6 21.752-15.6 33.011a4.986 4.986 0 0 1-3.055 4.589z" fill="#010002"/></symbol><symbol viewBox="0 0 512 512" id="uEA04-marker"><path d="M192 416h-32V0h32v416zM384 96L512 0H224v192h288L384 96zM224 323.375v32.531c55.812 8.844 96 32.281 96 60.094 0 35.344-64.469 64-144 64S32 451.344 32 416c0-27.812 40.188-51.25 96-60.094v-32.531C58.875 333.219 0 364.625 0 416c0 63.031 88.563 96 176 96 87.438 0 176-32.969 176-96 0-51.375-58.875-82.781-128-92.625z"/></symbol></svg>